<mxfile host="app.diagrams.net" modified="2021-04-10T02:40:16.079Z" agent="5.0 (Macintosh; Intel Mac OS X 11_2_3) AppleWebKit/537.36 (KHTML, like Gecko) Chrome/89.0.4389.114 Safari/537.36" etag="xxNf7MkrP07X7glspmVz" version="14.5.8" type="github">
  <diagram id="prtHgNgQTEPvFCAcTncT" name="Page-1">
    <mxGraphModel dx="527" dy="345" grid="1" gridSize="10" guides="1" tooltips="1" connect="1" arrows="1" fold="1" page="1" pageScale="1" pageWidth="827" pageHeight="1169" math="0" shadow="0">
      <root>
        <mxCell id="0" />
        <mxCell id="1" parent="0" />
        <mxCell id="e1Ly5W4bp6qiLQLhUuAz-1" value="CartModuleService" style="swimlane;fontStyle=0;childLayout=stackLayout;horizontal=1;startSize=26;fillColor=none;horizontalStack=0;resizeParent=1;resizeParentMax=0;resizeLast=0;collapsible=1;marginBottom=0;" parent="1" vertex="1">
          <mxGeometry x="180" y="420" width="140" height="130" as="geometry" />
        </mxCell>
        <mxCell id="e1Ly5W4bp6qiLQLhUuAz-2" value="Page Path" style="text;strokeColor=none;fillColor=none;align=left;verticalAlign=top;spacingLeft=4;spacingRight=4;overflow=hidden;rotatable=0;points=[[0,0.5],[1,0.5]];portConstraint=eastwest;" parent="e1Ly5W4bp6qiLQLhUuAz-1" vertex="1">
          <mxGeometry y="26" width="140" height="26" as="geometry" />
        </mxCell>
        <mxCell id="e1Ly5W4bp6qiLQLhUuAz-3" value="Service Protocol" style="text;strokeColor=none;fillColor=none;align=left;verticalAlign=top;spacingLeft=4;spacingRight=4;overflow=hidden;rotatable=0;points=[[0,0.5],[1,0.5]];portConstraint=eastwest;" parent="e1Ly5W4bp6qiLQLhUuAz-1" vertex="1">
          <mxGeometry y="52" width="140" height="26" as="geometry" />
        </mxCell>
        <mxCell id="e1Ly5W4bp6qiLQLhUuAz-6" value="Notification" style="text;strokeColor=none;fillColor=none;align=left;verticalAlign=top;spacingLeft=4;spacingRight=4;overflow=hidden;rotatable=0;points=[[0,0.5],[1,0.5]];portConstraint=eastwest;" parent="e1Ly5W4bp6qiLQLhUuAz-1" vertex="1">
          <mxGeometry y="78" width="140" height="26" as="geometry" />
        </mxCell>
        <mxCell id="e1Ly5W4bp6qiLQLhUuAz-4" value="Model Protocol" style="text;strokeColor=none;fillColor=none;align=left;verticalAlign=top;spacingLeft=4;spacingRight=4;overflow=hidden;rotatable=0;points=[[0,0.5],[1,0.5]];portConstraint=eastwest;" parent="e1Ly5W4bp6qiLQLhUuAz-1" vertex="1">
          <mxGeometry y="104" width="140" height="26" as="geometry" />
        </mxCell>
        <mxCell id="e1Ly5W4bp6qiLQLhUuAz-5" value="CartModule" style="swimlane;" parent="1" vertex="1">
          <mxGeometry x="140" y="310" width="200" height="70" as="geometry" />
        </mxCell>
        <mxCell id="feXlFkUcne0jBT6Camr8-6" value="1" style="edgeStyle=orthogonalEdgeStyle;rounded=0;orthogonalLoop=1;jettySize=auto;html=1;exitX=0.5;exitY=1;exitDx=0;exitDy=0;entryX=0.5;entryY=0;entryDx=0;entryDy=0;" edge="1" parent="1" source="e1Ly5W4bp6qiLQLhUuAz-7" target="e1Ly5W4bp6qiLQLhUuAz-8">
          <mxGeometry relative="1" as="geometry">
            <Array as="points">
              <mxPoint x="450" y="500" />
              <mxPoint x="350" y="500" />
            </Array>
          </mxGeometry>
        </mxCell>
        <mxCell id="e1Ly5W4bp6qiLQLhUuAz-7" value="GoodsModule" style="swimlane;" parent="1" vertex="1">
          <mxGeometry x="350" y="310" width="200" height="70" as="geometry" />
        </mxCell>
        <mxCell id="feXlFkUcne0jBT6Camr8-5" value="2" style="edgeStyle=orthogonalEdgeStyle;rounded=0;orthogonalLoop=1;jettySize=auto;html=1;exitX=0;exitY=0;exitDx=0;exitDy=0;entryX=0;entryY=1;entryDx=0;entryDy=0;" edge="1" parent="1" source="e1Ly5W4bp6qiLQLhUuAz-8" target="e1Ly5W4bp6qiLQLhUuAz-5">
          <mxGeometry relative="1" as="geometry" />
        </mxCell>
        <mxCell id="feXlFkUcne0jBT6Camr8-7" value="3" style="edgeStyle=orthogonalEdgeStyle;rounded=0;orthogonalLoop=1;jettySize=auto;html=1;exitX=0.75;exitY=0;exitDx=0;exitDy=0;entryX=0.75;entryY=1;entryDx=0;entryDy=0;" edge="1" parent="1" source="e1Ly5W4bp6qiLQLhUuAz-8" target="e1Ly5W4bp6qiLQLhUuAz-7">
          <mxGeometry relative="1" as="geometry">
            <Array as="points">
              <mxPoint x="455" y="510" />
              <mxPoint x="500" y="510" />
            </Array>
          </mxGeometry>
        </mxCell>
        <mxCell id="e1Ly5W4bp6qiLQLhUuAz-8" value="Hexagon" style="swimlane;" parent="1" vertex="1">
          <mxGeometry x="140" y="571" width="420" height="40" as="geometry" />
        </mxCell>
        <mxCell id="e1Ly5W4bp6qiLQLhUuAz-13" value="0" style="edgeStyle=orthogonalEdgeStyle;rounded=0;orthogonalLoop=1;jettySize=auto;html=1;exitX=1;exitY=0.5;exitDx=0;exitDy=0;entryX=0.25;entryY=1;entryDx=0;entryDy=0;" parent="1" source="e1Ly5W4bp6qiLQLhUuAz-3" target="e1Ly5W4bp6qiLQLhUuAz-7" edge="1">
          <mxGeometry relative="1" as="geometry" />
        </mxCell>
      </root>
    </mxGraphModel>
  </diagram>
</mxfile>
